<?xml version="1.0" standalone="no"?>
<!DOCTYPE svg PUBLIC "-//W3C//DTD SVG 20010904//EN"
 "http://www.w3.org/TR/2001/REC-SVG-20010904/DTD/svg10.dtd">
<svg version="1.0" xmlns="http://www.w3.org/2000/svg"
 width="2536.000000pt" height="2536.000000pt" viewBox="0 0 2536.000000 2536.000000"
 preserveAspectRatio="xMidYMid meet">
<metadata>
Created by potrace 1.14, written by Peter Selinger 2001-2017
</metadata>
<g transform="translate(0.000000,2536.000000) scale(0.100000,-0.100000)"
fill="#000000" stroke="none">
<path d="M12885 23439 c-162 -15 -271 -60 -534 -224 -1120 -696 -2124 -1548
-2841 -2410 -841 -1010 -1331 -2033 -1484 -3095 -44 -307 -49 -445 -41 -1203
l7 -698 -58 30 c-117 61 -223 74 -362 45 -93 -19 -98 -22 -75 -40 17 -13 17
-14 -2 -7 -17 6 -18 5 -7 -9 9 -11 10 -23 5 -35 -12 -26 -9 -58 6 -77 12 -14
12 -16 -5 -9 -16 5 -17 4 -8 -8 12 -15 12 -118 0 -138 -4 -6 -3 -11 2 -11 10
0 9 -70 -2 -88 -4 -6 -2 -20 3 -30 7 -13 7 -22 0 -29 -8 -8 -7 -13 0 -17 6 -4
11 -13 11 -19 0 -7 -4 -6 -10 3 -8 11 -9 9 -8 -12 1 -16 6 -28 10 -28 4 0 5
-6 2 -14 -11 -27 -10 -136 1 -136 6 0 7 -3 0 -8 -15 -11 -17 -64 -2 -55 7 4 5
-2 -3 -12 -11 -14 -12 -19 -2 -22 6 -3 9 -9 6 -14 -9 -15 -13 -63 -6 -74 9
-15 10 -45 1 -45 -5 0 -6 -7 -3 -15 4 -8 0 -23 -7 -32 -8 -10 -9 -14 -2 -10 6
4 14 3 17 -2 4 -5 2 -12 -3 -15 -11 -7 -9 -25 3 -45 7 -10 5 -12 -3 -6 -10 6
-11 3 -2 -14 7 -12 9 -26 5 -32 -9 -16 -11 -149 -1 -149 4 0 7 -5 7 -11 0 -5
-5 -7 -10 -4 -6 3 -10 1 -10 -4 0 -6 4 -11 9 -11 5 0 4 -14 -2 -30 -9 -25 -9
-33 2 -39 10 -6 10 -10 1 -16 -6 -4 -21 2 -33 13 -87 79 -220 80 -323 2 -130
-98 -206 -293 -206 -530 0 -221 59 -389 176 -502 103 -99 238 -108 349 -24
l32 25 0 -102 c0 -56 -3 -107 -8 -114 -4 -6 -2 -15 4 -18 5 -4 8 -13 5 -20 -3
-8 0 -16 7 -19 7 -3 6 -5 -3 -5 -9 -1 -16 -10 -16 -20 0 -11 4 -19 9 -18 5 1
12 -4 15 -12 3 -8 0 -11 -7 -7 -6 4 -11 3 -11 -3 0 -5 4 -12 8 -15 5 -3 8 -15
7 -28 -2 -18 -7 -22 -26 -20 -19 2 -21 0 -11 -10 14 -14 16 -32 2 -23 -7 4 -7
-3 0 -20 13 -34 13 -38 -2 -29 -10 6 -10 4 -2 -7 12 -14 15 -81 4 -74 -3 2 -6
-5 -6 -16 0 -10 3 -19 7 -19 4 0 9 -7 13 -15 3 -8 2 -14 -2 -14 -19 3 -23 -2
-11 -17 10 -13 10 -17 -1 -24 -10 -6 -11 -12 -3 -22 6 -7 9 -24 8 -38 -5 -41
-7 -104 -5 -115 1 -5 1 -14 0 -20 -5 -27 -3 -82 4 -93 4 -7 2 -12 -4 -12 -6 0
-8 -5 -4 -12 4 -7 3 -8 -4 -4 -7 4 -12 18 -12 32 0 13 -5 24 -11 24 -12 0 -8
-35 7 -74 5 -14 4 -17 -4 -12 -7 4 -12 3 -12 -3 0 -5 4 -12 9 -15 5 -3 8 -17
8 -31 0 -13 -3 -23 -7 -20 -10 6 -7 -28 3 -36 5 -3 4 -23 -1 -43 -6 -20 -7
-38 -2 -41 5 -3 5 -18 1 -33 -4 -15 -6 -37 -5 -49 1 -12 -4 -21 -10 -20 -6 1
-9 -5 -8 -13 2 -8 0 -11 -4 -7 -11 11 -14 38 -3 31 5 -3 9 0 9 5 0 16 -16 13
-34 -5 -16 -16 -22 -39 -8 -31 4 3 7 -17 7 -44 0 -53 -6 -61 -22 -27 -7 16 -9
1 -7 -56 2 -58 0 -76 -9 -67 -16 16 -27 14 -20 -5 4 -11 1 -15 -13 -12 -14 2
-18 -2 -17 -17 2 -20 4 -60 3 -103 0 -35 7 -42 67 -68 80 -36 190 -51 262 -36
81 17 82 17 70 -15 -28 -77 -76 -135 -174 -213 -455 -359 -739 -878 -794
-1450 -20 -204 -113 -3074 -108 -3295 19 -702 284 -1359 761 -1888 448 -496
1077 -833 1741 -931 206 -31 439 -36 2120 -46 946 -6 2528 -17 3516 -25 1824
-15 1911 -15 2141 20 664 99 1292 433 1737 925 394 436 650 973 735 1546 40
262 40 371 2 1284 -39 923 -99 2232 -116 2530 -22 362 -87 617 -231 900 -110
218 -242 393 -432 577 -67 65 -110 108 -97 96 l25 -22 -3 117 c-1 64 -2 122
-3 127 0 6 3 28 6 50 7 51 7 49 1 123 -3 35 -8 67 -11 72 -4 6 -1 10 5 10 6 0
8 5 5 10 -4 6 -1 18 7 27 11 14 11 16 0 9 -11 -6 -13 0 -11 27 2 20 1 39 -3
42 -3 3 -2 22 2 41 5 23 4 34 -4 34 -8 0 -8 2 1 8 7 4 10 29 8 67 -3 35 1 65
7 73 8 9 8 16 2 20 -6 4 -9 64 -7 147 3 148 3 165 0 205 -2 14 1 33 6 43 4 9
4 17 0 17 -4 0 -8 32 -9 70 0 39 4 70 8 70 5 0 6 6 1 13 -10 16 -11 85 -2 118
4 16 3 31 -4 38 -8 8 -8 11 0 11 14 0 10 45 -6 64 -8 9 -8 16 -2 20 5 4 8 15
6 26 -4 23 8 34 57 49 83 27 185 143 228 258 37 100 52 192 52 323 -1 146 -22
245 -77 355 -56 114 -128 185 -218 214 -20 7 -35 16 -32 21 3 5 -1 11 -7 13
-10 4 -10 6 0 6 8 1 10 6 5 14 -10 16 -13 37 -5 37 4 0 8 14 9 30 1 17 -2 30
-8 30 -6 0 -7 6 -3 12 10 16 13 48 4 48 -4 0 -7 7 -7 15 0 8 4 15 8 15 5 0 5
10 0 23 -5 14 -5 30 0 40 6 10 6 17 1 17 -5 0 -8 19 -5 43 2 23 3 49 3 57 0 8
-1 53 -3 100 -1 47 2 91 7 98 5 7 4 12 -2 12 -7 0 -8 10 -3 28 8 28 5 171 -4
180 -2 2 0 13 6 24 7 14 7 23 -1 33 -8 10 -8 14 2 17 10 4 10 8 -1 21 -7 10
-9 17 -3 17 5 0 8 14 6 33 -6 48 -6 88 -1 124 4 31 3 32 -92 76 -53 25 -125
54 -160 66 -167 57 -334 29 -470 -79 l-54 -43 9 589 c16 1019 6 1222 -77 1714
-292 1716 -1437 3341 -3264 4632 -364 257 -828 546 -1065 663 -136 68 -305 98
-465 84z m3215 -5370 c204 -147 481 -408 633 -599 186 -233 336 -491 447 -770
48 -121 62 -190 61 -304 -1 -171 -57 -327 -166 -458 -66 -79 -67 -80 -660
-490 -258 -179 -722 -500 -1030 -713 -1908 -1322 -2342 -1619 -2385 -1632 -53
-17 -125 -11 -172 13 -18 9 -251 169 -518 354 -267 185 -633 439 -815 565
-333 231 -801 556 -1770 1230 -291 202 -608 423 -704 489 -96 67 -199 143
-229 171 -158 143 -244 362 -228 577 9 115 34 194 111 353 128 264 327 521
576 746 l80 72 107 19 c1048 180 2349 309 3822 378 779 36 1471 54 2300 58
l455 2 85 -61z m-8113 -2711 c-1 -79 -3 -15 -3 142 0 157 2 221 3 143 2 -79 2
-207 0 -285z m9770 -225 c-2 -16 -4 -3 -4 27 0 30 2 43 4 28 2 -16 2 -40 0
-55z m-9780 -580 c-1 -49 -3 -9 -3 87 0 96 2 136 3 88 2 -49 2 -127 0 -175z
m9790 95 c-2 -18 -4 -6 -4 27 0 33 2 48 4 33 2 -15 2 -42 0 -60z m-9800 -320
c-3 -8 -6 -5 -6 6 -1 11 2 17 5 13 3 -3 4 -12 1 -19z m9820 -170 c-2 -13 -4
-3 -4 22 0 25 2 35 4 23 2 -13 2 -33 0 -45z m-9830 -265 c-2 -27 -3 -5 -3 47
0 52 1 74 3 48 2 -27 2 -69 0 -95z m9850 -100 c-3 -10 -5 -2 -5 17 0 19 2 27
5 18 2 -10 2 -26 0 -35z m-9860 -130 c-2 -21 -4 -6 -4 32 0 39 2 55 4 38 2
-18 2 -50 0 -70z m9880 -135 c-3 -8 -6 -5 -6 6 -1 11 2 17 5 13 3 -3 4 -12 1
-19z m-9890 -75 c-2 -16 -4 -5 -4 22 0 28 2 40 4 28 2 -13 2 -35 0 -50z m-10
-175 c-2 -18 -4 -4 -4 32 0 36 2 50 4 33 2 -18 2 -48 0 -65z m-10 -140 c-2
-18 -4 -6 -4 27 0 33 2 48 4 33 2 -15 2 -42 0 -60z m-20 -265 c-2 -16 -4 -5
-4 22 0 28 2 40 4 28 2 -13 2 -35 0 -50z m-10 -105 c-2 -13 -4 -3 -4 22 0 25
2 35 4 23 2 -13 2 -33 0 -45z m-10 -90 c-2 -13 -4 -5 -4 17 -1 22 1 32 4 23 2
-10 2 -28 0 -40z m-10 -100 c-3 -7 -5 -2 -5 12 0 14 2 19 5 13 2 -7 2 -19 0
-25z m-10 -85 c-3 -10 -5 -4 -5 12 0 17 2 24 5 18 2 -7 2 -21 0 -30z m-10 -70
c-3 -10 -5 -4 -5 12 0 17 2 24 5 18 2 -7 2 -21 0 -30z m10140 15 c-3 -8 -6 -5
-6 6 -1 11 2 17 5 13 3 -3 4 -12 1 -19z m-10150 -95 c-3 -10 -5 -2 -5 17 0 19
2 27 5 18 2 -10 2 -26 0 -35z m-10 -60 c-3 -10 -5 -4 -5 12 0 17 2 24 5 18 2
-7 2 -21 0 -30z m-30 -175 c-3 -8 -6 -5 -6 6 -1 11 2 17 5 13 3 -3 4 -12 1
-19z m10653 -324 c0 -3 -13 4 -30 16 -16 12 -30 24 -30 26 0 3 14 -4 30 -16
17 -12 30 -24 30 -26z m-5324 -249 c416 -73 746 -377 863 -797 52 -186 69
-426 37 -503 -37 -86 -121 -144 -211 -145 -71 0 -115 15 -162 55 -63 54 -80
100 -93 251 -16 202 -61 334 -152 449 -229 289 -672 300 -923 23 -114 -126
-170 -274 -194 -515 -11 -103 -32 -155 -84 -200 -118 -104 -298 -69 -375 71
-21 38 -22 201 -3 316 77 463 354 811 755 950 170 59 366 75 542 45z m5667
-835 c68 -59 129 -209 163 -395 22 -122 31 -592 15 -803 -69 -927 -304 -2123
-443 -2263 -57 -57 -163 -31 -188 47 -14 43 -9 65 39 174 175 391 357 1157
427 1800 25 229 30 713 10 888 -25 209 -69 348 -137 432 -37 44 -39 91 -4 125
34 34 76 33 118 -5z m-10268 -1636 c159 -27 461 -107 1090 -289 1168 -338
1862 -501 2455 -577 228 -29 638 -35 885 -14 691 61 1580 219 3045 542 1181
261 1511 325 1673 325 130 1 180 -49 143 -143 -59 -157 -510 -538 -991 -840
-1207 -758 -2669 -1193 -4150 -1236 -966 -28 -1760 93 -2500 383 -135 53 -468
212 -590 282 -256 147 -450 288 -551 401 -88 99 -206 244 -244 301 -14 20 -40
56 -58 78 -84 107 -309 463 -404 641 -22 42 -46 85 -54 97 -12 18 -12 24 -1
33 42 35 116 40 252 16z"/>
<path d="M12818 15812 c-16 -10 -28 -22 -28 -29 0 -6 -4 -15 -10 -18 -6 -4 -7
1 -3 12 4 10 -8 2 -25 -17 -18 -19 -30 -40 -27 -47 2 -7 0 -13 -6 -13 -6 0 -7
-4 -4 -10 3 -5 -2 -10 -12 -10 -11 0 -14 -3 -7 -8 6 -4 11 -23 12 -42 0 -21
-2 -29 -7 -21 -6 9 -11 10 -15 2 -4 -6 -4 -11 0 -11 3 0 0 -8 -7 -17 -11 -15
-11 -16 0 -6 7 6 20 9 29 5 13 -5 13 -7 -3 -12 -14 -5 -20 -18 -22 -44 -2 -31
0 -36 12 -26 11 9 13 6 10 -19 -2 -17 0 -31 5 -31 4 0 6 -9 3 -20 -4 -14 0
-20 12 -20 14 0 15 -3 5 -15 -10 -12 -8 -16 14 -25 26 -9 36 -30 15 -30 -5 0
-8 4 -5 8 3 5 -1 9 -9 9 -12 0 -12 -4 2 -19 11 -13 20 -15 27 -8 5 5 14 10 18
10 13 0 9 -28 -4 -32 -7 -3 2 -5 20 -5 17 0 32 5 32 11 0 6 5 4 10 -4 5 -8 10
-12 10 -8 0 4 14 3 31 -2 32 -9 67 8 51 25 -4 4 4 4 18 0 24 -7 24 -7 5 9 -18
14 -18 15 -3 16 10 0 20 11 24 25 5 22 9 24 22 13 13 -11 15 -10 10 9 -3 12
-1 24 5 26 5 1 11 11 13 20 1 9 -2 15 -7 11 -5 -3 -9 2 -9 11 0 10 6 15 13 12
10 -4 13 14 12 73 0 68 -2 77 -15 67 -9 -7 -8 -4 3 9 9 11 17 29 16 40 0 18
-1 18 -8 -1 -7 -17 -9 -16 -16 13 -4 21 -12 32 -20 29 -8 -4 -12 4 -13 21 0
43 -3 48 -12 27 -8 -18 -9 -17 -9 8 -1 24 -17 35 -36 25 -2 -2 -11 6 -19 17
-14 17 -17 18 -26 5 -7 -11 -10 -11 -10 -2 0 7 -4 10 -10 7 -5 -3 -10 -1 -10
4 0 14 -9 13 -42 -7z m29 -14 c-3 -8 -6 -5 -6 6 -1 11 2 17 5 13 3 -3 4 -12 1
-19z m-137 -248 c0 -5 -4 -10 -10 -10 -5 0 -10 5 -10 10 0 6 5 10 10 10 6 0
10 -4 10 -10z"/>
<path d="M12865 15281 c-3 -5 -1 -12 5 -16 5 -3 10 1 10 9 0 18 -6 21 -15 7z"/>
<path d="M17415 8864 c-169 -30 -461 -92 -1055 -225 -1891 -424 -2589 -557
-3285 -630 -499 -51 -812 -43 -1328 36 -571 87 -1099 214 -2537 608 -496 136
-671 180 -700 175 -17 -3 -13 -12 28 -81 152 -254 431 -554 721 -776 604 -462
1373 -767 2241 -890 685 -97 1481 -86 2250 30 1188 180 2350 632 3265 1272
246 171 552 427 586 490 13 23 -9 22 -186 -9z"/>
</g>
</svg>
